# xmcd CD database file
# Copyright (C) 1995 Ti Kan
#
# Track frame offsets:
#	150
#	13749
#	29996
#	43140
#	56989
#	67343
#	80029
#	91926
#	103086
#	115786
#	127788
#	140467
#	150983
#	163472
#	175284
#	185739
#
# Disc length: 2608 seconds
#
# Revision: 1
# Processed by: cddbd v1.4b41PL1 Copyright (c) Steve Scherf et al.
# Submitted via: NotifyCDPlayer(CDDB) 1.05
#
DISCID=ed0a2e10
DTITLE=Jimmy Reed - Upside the Wall
DYEAR=1900
DGENRE=
TTITLE0=Mary, Mary!
TTITLE1=Cold and Lonesome
TTITLE2=Upside the Wall
TTITLE3=Baby, You Don't Have to Go
TTITLE4=I Ain't Got You
TTITLE5=Can't Stand to See You Go
TTITLE6=I'm Gonna Get My Baby
TTITLE7=Hush, Hush
TTITLE8=The Sun Is Shining
TTITLE9=Honest I Do
TTITLE10=You Got Me Dizzy
TTITLE11=Baby What You Want Me To Do
TTITLE12=Big Boss Man
TTITLE13=Bright Lights, Big City
TTITLE14=Aw Shucks - Hush Your Mouth
TTITLE15=Ain't That Loving You Baby
EXTD=
EXTT0=
EXTT1=
EXTT2=
EXTT3=
EXTT4=
EXTT5=
EXTT6=
EXTT7=
EXTT8=
EXTT9=
EXTT10=
EXTT11=
EXTT12=
EXTT13=
EXTT14=
EXTT15=
PLAYORDER=
